<?xml version="1.0" encoding="UTF-8"?>
<!DOCTYPE svg
PUBLIC "-//W3C//DTD SVG 1.1//EN"
       "http://www.w3.org/Graphics/SVG/1.1/DTD/svg11.dtd">
<svg viewBox="-15 97 776 540" width="791px" height="443px" xmlns="http://www.w3.org/2000/svg" version="1.1">
   <line x1="610" y1="175" x2="620" y2="175" style="stroke:#b0b;stroke-width:1;"/>
   <line x1="660" y1="432" x2="670" y2="432" style="stroke:#b0b;stroke-width:1;"/>
   <line x1="620" y1="175" x2="660" y2="432" style="stroke:#b0b;stroke-width:1;"/>
   <line x1="617.5" y1="175" x2="613.96446609407" y2="178.53553390593" style="stroke:#b0b;stroke-width:2;"/>
   <line x1="617.5" y1="175" x2="613.96446609407" y2="171.46446609407" style="stroke:#b0b;stroke-width:2;"/>
   <line x1="665" y1="432" x2="661.46446609407" y2="435.53553390593" style="stroke:#b0b;stroke-width:2;"/>
   <line x1="665" y1="432" x2="661.46446609407" y2="428.46446609407" style="stroke:#b0b;stroke-width:2;"/>
   <line x1="491" y1="195" x2="481" y2="195" style="stroke:#cb0;stroke-width:1;"/>
   <line x1="379" y1="271" x2="369" y2="271" style="stroke:#cb0;stroke-width:1;"/>
   <line x1="481" y1="195" x2="379" y2="271" style="stroke:#cb0;stroke-width:1;"/>
   <line x1="483.5" y1="195" x2="487.03553390593" y2="198.53553390593" style="stroke:#cb0;stroke-width:2;"/>
   <line x1="483.5" y1="195" x2="487.03553390593" y2="191.46446609407" style="stroke:#cb0;stroke-width:2;"/>
   <line x1="374" y1="271" x2="377.53553390593" y2="274.53553390593" style="stroke:#cb0;stroke-width:2;"/>
   <line x1="374" y1="271" x2="377.53553390593" y2="267.46446609407" style="stroke:#cb0;stroke-width:2;"/>
   <line x1="491" y1="215" x2="481" y2="215" style="stroke:#b0b;stroke-width:1;"/>
   <line x1="328" y1="355" x2="318" y2="355" style="stroke:#b0b;stroke-width:1;"/>
   <line x1="481" y1="215" x2="328" y2="355" style="stroke:#b0b;stroke-width:1;"/>
   <line x1="483.5" y1="215" x2="487.03553390593" y2="218.53553390593" style="stroke:#b0b;stroke-width:2;"/>
   <line x1="483.5" y1="215" x2="487.03553390593" y2="211.46446609407" style="stroke:#b0b;stroke-width:2;"/>
   <line x1="323" y1="355" x2="326.53553390593" y2="358.53553390593" style="stroke:#b0b;stroke-width:2;"/>
   <line x1="323" y1="355" x2="326.53553390593" y2="351.46446609407" style="stroke:#b0b;stroke-width:2;"/>
   <line x1="193" y1="167" x2="183" y2="167" style="stroke:#c00;stroke-width:1;"/>
   <line x1="189" y1="355" x2="199" y2="355" style="stroke:#c00;stroke-width:1;"/>
   <line x1="183" y1="167" x2="189" y2="355" style="stroke:#c00;stroke-width:1;"/>
   <line x1="185.5" y1="167" x2="189.03553390593" y2="170.53553390593" style="stroke:#c00;stroke-width:2;"/>
   <line x1="185.5" y1="167" x2="189.03553390593" y2="163.46446609407" style="stroke:#c00;stroke-width:2;"/>
   <line x1="194" y1="355" x2="190.46446609407" y2="358.53553390593" style="stroke:#c00;stroke-width:2;"/>
   <line x1="194" y1="355" x2="190.46446609407" y2="351.46446609407" style="stroke:#c00;stroke-width:2;"/>
   <line x1="312" y1="187" x2="322" y2="187" style="stroke:#cb0;stroke-width:1;"/>
   <line x1="481" y1="155" x2="491" y2="155" style="stroke:#cb0;stroke-width:1;"/>
   <line x1="322" y1="187" x2="481" y2="155" style="stroke:#cb0;stroke-width:1;"/>
   <line x1="319.5" y1="187" x2="315.96446609407" y2="190.53553390593" style="stroke:#cb0;stroke-width:2;"/>
   <line x1="319.5" y1="187" x2="315.96446609407" y2="183.46446609407" style="stroke:#cb0;stroke-width:2;"/>
   <line x1="486" y1="155" x2="482.46446609407" y2="158.53553390593" style="stroke:#cb0;stroke-width:2;"/>
   <line x1="486" y1="155" x2="482.46446609407" y2="151.46446609407" style="stroke:#cb0;stroke-width:2;"/>
   <line x1="119" y1="162" x2="129" y2="162" style="stroke:#cb0;stroke-width:1;"/>
   <line x1="183" y1="147" x2="193" y2="147" style="stroke:#cb0;stroke-width:1;"/>
   <line x1="129" y1="162" x2="183" y2="147" style="stroke:#cb0;stroke-width:1;"/>
   <line x1="126.5" y1="162" x2="122.96446609407" y2="165.53553390593" style="stroke:#cb0;stroke-width:2;"/>
   <line x1="126.5" y1="162" x2="122.96446609407" y2="158.46446609407" style="stroke:#cb0;stroke-width:2;"/>
   <line x1="188" y1="147" x2="184.46446609407" y2="150.53553390593" style="stroke:#cb0;stroke-width:2;"/>
   <line x1="188" y1="147" x2="184.46446609407" y2="143.46446609407" style="stroke:#cb0;stroke-width:2;"/>
   <line x1="119" y1="182" x2="129" y2="182" style="stroke:#c00;stroke-width:1;"/>
   <line x1="189" y1="355" x2="199" y2="355" style="stroke:#c00;stroke-width:1;"/>
   <line x1="129" y1="182" x2="189" y2="355" style="stroke:#c00;stroke-width:1;"/>
   <line x1="126.5" y1="182" x2="122.96446609407" y2="185.53553390593" style="stroke:#c00;stroke-width:2;"/>
   <line x1="126.5" y1="182" x2="122.96446609407" y2="178.46446609407" style="stroke:#c00;stroke-width:2;"/>
   <line x1="194" y1="355" x2="190.46446609407" y2="358.53553390593" style="stroke:#c00;stroke-width:2;"/>
   <line x1="194" y1="355" x2="190.46446609407" y2="351.46446609407" style="stroke:#c00;stroke-width:2;"/>
   <line x1="318" y1="475" x2="328" y2="475" style="stroke:#0bf;stroke-width:1;"/>
   <line x1="452" y1="357" x2="462" y2="357" style="stroke:#0bf;stroke-width:1;"/>
   <line x1="328" y1="475" x2="452" y2="357" style="stroke:#0bf;stroke-width:1;"/>
   <line x1="325.5" y1="475" x2="321.96446609407" y2="478.53553390593" style="stroke:#0bf;stroke-width:2;"/>
   <line x1="325.5" y1="475" x2="321.96446609407" y2="471.46446609407" style="stroke:#0bf;stroke-width:2;"/>
   <line x1="457" y1="357" x2="453.46446609407" y2="360.53553390593" style="stroke:#0bf;stroke-width:2;"/>
   <line x1="457" y1="357" x2="453.46446609407" y2="353.46446609407" style="stroke:#0bf;stroke-width:2;"/>
   <line x1="318" y1="495" x2="328" y2="495" style="stroke:#bbb;stroke-width:1;"/>
   <line x1="660" y1="432" x2="670" y2="432" style="stroke:#bbb;stroke-width:1;"/>
   <line x1="328" y1="495" x2="660" y2="432" style="stroke:#bbb;stroke-width:1;"/>
   <line x1="325.5" y1="495" x2="321.96446609407" y2="498.53553390593" style="stroke:#bbb;stroke-width:2;"/>
   <line x1="325.5" y1="495" x2="321.96446609407" y2="491.46446609407" style="stroke:#bbb;stroke-width:2;"/>
   <line x1="665" y1="432" x2="661.46446609407" y2="435.53553390593" style="stroke:#bbb;stroke-width:2;"/>
   <line x1="665" y1="432" x2="661.46446609407" y2="428.46446609407" style="stroke:#bbb;stroke-width:2;"/>
   <rect width="119" height="20" x="670" y="402" style="fill:#007;stroke:black;"/>
   <text width="119" height="20" x="675" y="416" style="fill:#fff;" font-family="Arial" font-size="16px"> classes</text>
   <rect width="119" height="20" x="670" y="422" style="fill:#aea;stroke:black;"/>
   <text width="119" height="20" x="675" y="436" style="fill:black;" font-family="Arial" font-size="16px">id</text>
   <rect width="119" height="20" x="670" y="442" style="fill:none;stroke:black;"/>
   <text width="119" height="20" x="675" y="456" style="fill:black;" font-family="Arial" font-size="16px">grade_year</text>
   <rect width="119" height="20" x="670" y="462" style="fill:none;stroke:black;"/>
   <text width="119" height="20" x="675" y="476" style="fill:black;" font-family="Arial" font-size="16px">name_letter</text>
   <rect width="119" height="20" x="491" y="125" style="fill:#007;stroke:black;"/>
   <text width="119" height="20" x="496" y="139" style="fill:#fff;" font-family="Arial" font-size="16px"> class_subjects</text>
   <rect width="119" height="20" x="491" y="145" style="fill:#aea;stroke:black;"/>
   <text width="119" height="20" x="496" y="159" style="fill:black;" font-family="Arial" font-size="16px">id</text>
   <rect width="119" height="20" x="491" y="165" style="fill:none;stroke:black;"/>
   <text width="119" height="20" x="496" y="179" style="fill:black;" font-family="Arial" font-size="16px">class_id</text>
   <rect width="119" height="20" x="491" y="185" style="fill:none;stroke:black;"/>
   <text width="119" height="20" x="496" y="199" style="fill:black;" font-family="Arial" font-size="16px">subject_id</text>
   <rect width="119" height="20" x="491" y="205" style="fill:none;stroke:black;"/>
   <text width="119" height="20" x="496" y="219" style="fill:black;" font-family="Arial" font-size="16px">teacher_id</text>
   <rect width="119" height="20" x="193" y="117" style="fill:#007;stroke:black;"/>
   <text width="119" height="20" x="198" y="131" style="fill:#fff;" font-family="Arial" font-size="16px"> enrollments</text>
   <rect width="119" height="20" x="193" y="137" style="fill:#aea;stroke:black;"/>
   <text width="119" height="20" x="198" y="151" style="fill:black;" font-family="Arial" font-size="16px">id</text>
   <rect width="119" height="20" x="193" y="157" style="fill:none;stroke:black;"/>
   <text width="119" height="20" x="198" y="171" style="fill:black;" font-family="Arial" font-size="16px">student_id</text>
   <rect width="119" height="20" x="193" y="177" style="fill:none;stroke:black;"/>
   <text width="119" height="20" x="198" y="191" style="fill:black;" font-family="Arial" font-size="16px">class_subject_id</text>
   <rect width="119" height="20" x="0" y="112" style="fill:#007;stroke:black;"/>
   <text width="119" height="20" x="5" y="126" style="fill:#fff;" font-family="Arial" font-size="16px"> grades</text>
   <rect width="119" height="20" x="0" y="132" style="fill:#aea;stroke:black;"/>
   <text width="119" height="20" x="5" y="146" style="fill:black;" font-family="Arial" font-size="16px">id</text>
   <rect width="119" height="20" x="0" y="152" style="fill:none;stroke:black;"/>
   <text width="119" height="20" x="5" y="166" style="fill:black;" font-family="Arial" font-size="16px">enrollment_id</text>
   <rect width="119" height="20" x="0" y="172" style="fill:none;stroke:black;"/>
   <text width="119" height="20" x="5" y="186" style="fill:black;" font-family="Arial" font-size="16px">teacher_id</text>
   <rect width="119" height="20" x="0" y="192" style="fill:none;stroke:black;"/>
   <text width="119" height="20" x="5" y="206" style="fill:black;" font-family="Arial" font-size="16px">grade_value</text>
   <rect width="119" height="20" x="0" y="212" style="fill:none;stroke:black;"/>
   <text width="119" height="20" x="5" y="226" style="fill:black;" font-family="Arial" font-size="16px">graded_at</text>
   <rect width="119" height="20" x="0" y="232" style="fill:none;stroke:black;"/>
   <text width="119" height="20" x="5" y="246" style="fill:black;" font-family="Arial" font-size="16px">note</text>
   <rect width="119" height="20" x="462" y="327" style="fill:#007;stroke:black;"/>
   <text width="119" height="20" x="467" y="341" style="fill:#fff;" font-family="Arial" font-size="16px"> roles</text>
   <rect width="119" height="20" x="462" y="347" style="fill:#aea;stroke:black;"/>
   <text width="119" height="20" x="467" y="361" style="fill:black;" font-family="Arial" font-size="16px">id</text>
   <rect width="119" height="20" x="462" y="367" style="fill:none;stroke:black;"/>
   <text width="119" height="20" x="467" y="381" style="fill:black;" font-family="Arial" font-size="16px">code</text>
   <rect width="119" height="20" x="462" y="387" style="fill:none;stroke:black;"/>
   <text width="119" height="20" x="467" y="401" style="fill:black;" font-family="Arial" font-size="16px">name</text>
   <rect width="119" height="20" x="250" y="241" style="fill:#007;stroke:black;"/>
   <text width="119" height="20" x="255" y="255" style="fill:#fff;" font-family="Arial" font-size="16px"> subjects</text>
   <rect width="119" height="20" x="250" y="261" style="fill:#aea;stroke:black;"/>
   <text width="119" height="20" x="255" y="275" style="fill:black;" font-family="Arial" font-size="16px">id</text>
   <rect width="119" height="20" x="250" y="281" style="fill:none;stroke:black;"/>
   <text width="119" height="20" x="255" y="295" style="fill:black;" font-family="Arial" font-size="16px">name</text>
   <rect width="119" height="20" x="199" y="325" style="fill:#007;stroke:black;"/>
   <text width="119" height="20" x="204" y="339" style="fill:#fff;" font-family="Arial" font-size="16px"> users</text>
   <rect width="119" height="20" x="199" y="345" style="fill:#aea;stroke:black;"/>
   <text width="119" height="20" x="204" y="359" style="fill:black;" font-family="Arial" font-size="16px">id</text>
   <rect width="119" height="20" x="199" y="365" style="fill:none;stroke:black;"/>
   <text width="119" height="20" x="204" y="379" style="fill:black;" font-family="Arial" font-size="16px">username</text>
   <rect width="119" height="20" x="199" y="385" style="fill:none;stroke:black;"/>
   <text width="119" height="20" x="204" y="399" style="fill:black;" font-family="Arial" font-size="16px">password_hash</text>
   <rect width="119" height="20" x="199" y="405" style="fill:none;stroke:black;"/>
   <text width="119" height="20" x="204" y="419" style="fill:black;" font-family="Arial" font-size="16px">first_name</text>
   <rect width="119" height="20" x="199" y="425" style="fill:none;stroke:black;"/>
   <text width="119" height="20" x="204" y="439" style="fill:black;" font-family="Arial" font-size="16px">last_name</text>
   <rect width="119" height="20" x="199" y="445" style="fill:none;stroke:black;"/>
   <text width="119" height="20" x="204" y="459" style="fill:black;" font-family="Arial" font-size="16px">email</text>
   <rect width="119" height="20" x="199" y="465" style="fill:none;stroke:black;"/>
   <text width="119" height="20" x="204" y="479" style="fill:black;" font-family="Arial" font-size="16px">role_id</text>
   <rect width="119" height="20" x="199" y="485" style="fill:none;stroke:black;"/>
   <text width="119" height="20" x="204" y="499" style="fill:black;" font-family="Arial" font-size="16px">class_id</text>
   <rect width="119" height="20" x="199" y="505" style="fill:none;stroke:black;"/>
   <text width="119" height="20" x="204" y="519" style="fill:black;" font-family="Arial" font-size="16px">created_at</text>
</svg>
